<?xml version="1.0" standalone="no"?>
<!DOCTYPE svg PUBLIC "-//W3C//DTD SVG 20010904//EN" "http://www.w3.org/TR/2001/REC-SVG-20010904/DTD/svg10.dtd">
<svg version="1.0" xmlns="http://www.w3.org/2000/svg" width="128.000000pt" height="128.000000pt"
  viewBox="0 0 128.000000 128.000000" preserveAspectRatio="xMidYMid meet">
  <g transform="translate(0.000000,128.000000) scale(0.100000,-0.100000)" fill="green" stroke="none">
    <path d="M475 1231 c-101 -29 -184 -79 -266 -161 -129 -130 -187 -283 -176
-464 26 -406 429 -672 814 -536 170 60 319 215 374 390 30 93 36 219 15 314
-49 219 -227 405 -442 460 -83 21 -240 20 -319 -3z m267 -92 c253 -53 434
-307 398 -559 -17 -123 -61 -211 -146 -295 -197 -193 -514 -193 -709 2 -158
158 -194 378 -95 579 101 206 330 319 552 273z" />
    <path d="M482 858 c-9 -9 -12 -70 -12 -213 0 -188 1 -203 20 -220 24 -22 22
-23 205 82 178 103 187 109 183 142 -3 22 -30 41 -168 123 -161 94 -204 110
-228 86z" />
  </g>
</svg>